<svg width="30" height="30" viewBox="0 0 30 30" fill="none" xmlns="http://www.w3.org/2000/svg">
<path d="M14.861 29.799C6.902 29.778 0.459 23.322 0.459 15.36C0.459 7.38602 6.924 0.921021 14.898 0.921021C22.872 0.921021 29.337 7.38602 29.337 15.36C29.337 15.41 29.337 15.46 29.336 15.511V15.503C29.215 23.412 22.785 29.78 14.863 29.799H14.861ZM14.861 25.671C20.556 25.671 25.172 21.055 25.172 15.36C25.172 9.66502 20.556 5.04902 14.861 5.04902C9.179 5.04902 4.57 9.64502 4.55 15.322V15.324C4.55 15.345 4.55 15.371 4.55 15.396C4.55 21.071 9.15 25.671 14.825 25.671C14.863 25.671 14.901 25.671 14.938 25.67H14.932L14.861 25.671Z" fill="#CCBA8D"/>
</svg>
